<svg xmlns="http://www.w3.org/2000/svg" width="21.202" height="22" viewBox="0 0 21.202 22">
  <path id="fi-rr-clip" d="M21.04,8.8a.916.916,0,0,0-1.3,0L9.763,18.821a4.582,4.582,0,1,1-6.481-6.48l9.667-9.706a2.749,2.749,0,1,1,3.888,3.887L7.171,16.229a.937.937,0,0,1-1.3,0,.916.916,0,0,1,0-1.3l8.607-8.646a.916.916,0,1,0-1.3-1.3L4.579,13.637a2.749,2.749,0,0,0,0,3.888,2.816,2.816,0,0,0,3.888,0l9.666-9.707a4.582,4.582,0,1,0-6.48-6.479L1.987,11.046a6.415,6.415,0,0,0,9.072,9.072L21.04,10.1a.916.916,0,0,0,0-1.3Z" transform="translate(-0.108 0.003)" fill="#ba32ff"/>
</svg>
